<svg xmlns="http://www.w3.org/2000/svg" xmlns:xlink="http://www.w3.org/1999/xlink" width="1024" height="1024"><defs><radialGradient xlink:href="#a" id="b" cx="509.476" cy="493.068" r="377.856" fx="509.476" fy="493.068" gradientTransform="matrix(1 0 0 1.0256 0 -12.627)" gradientUnits="userSpaceOnUse"/><linearGradient id="a"><stop offset="0" style="stop-color:red;stop-opacity:1"/><stop offset="1" style="stop-color:#570000;stop-opacity:1"/></linearGradient></defs><ellipse cx="509.476" cy="493.068" rx="377.374" ry="387.05" style="fill:url(#b);stroke:#160000;stroke-width:7.463;stroke-dasharray:none;stroke-opacity:1"/><path d="M496.81 889.567c-17-8.76-38.102-21.28-56.383-33.453-69.642-46.374-111.915-100.002-132.534-168.133-10.751-35.524-16.096-93.133-16.424-177.027-.157-40.117.275-45.492 4.293-53.403.988-1.946 2.97-4.461 4.402-5.588 2.645-2.08 6.845-3.584 7.68-2.75.252.253 1.732 7.82 3.289 16.819 8.646 49.975 22.498 83.317 42.999 103.502 12.786 12.59 25.823 17.788 36.688 14.63 4.51-1.312 7.085-3.136 16.208-11.485 5.965-5.458 14.395-12.474 18.733-15.59 9.797-7.035 24.816-14.413 34.926-17.154 17.546-4.758 40.364-.946 48.859 8.162l2.311 2.478 1.717-2.183c4.397-5.59 20.182-10.567 33.358-10.518 22.583.085 44.939 11.348 69.885 35.209 8.506 8.136 10.611 9.646 15.382 11.032 4.54 1.32 6.466 1.418 10.793.55 11.276-2.265 24.638-12.205 35.187-26.177 10.488-13.893 21.095-38.394 27.634-63.837 3.164-12.31 8.132-38.86 8.136-43.485.005-5.393 9.333-.846 12.964 6.32 4.915 9.699 5.914 27.584 4.499 80.579-2.202 82.454-7.417 125.297-19.55 160.608-10.269 29.883-24.983 56.867-44.57 81.733-10.069 12.783-41.875 44.349-55.322 54.905-24.424 19.172-56.232 39.704-83.919 54.168-14.865 7.766-16.33 7.77-31.241.088zm-62.677-92.363v-10.029l-6.002-.627c-7.557-.79-12.201-3.172-14.484-7.428-1.58-2.946-1.784-5.81-1.792-25.125-.008-20.863-.108-22.011-2.294-26.705-2.846-6.112-7.606-11.613-12-13.867l-3.36-1.724 4.515-2.646c5.096-2.986 9.755-8.826 11.192-14.026.531-1.924 1.228-10.687 1.547-19.474.32-8.786.989-17.32 1.486-18.963 1.31-4.325 5.43-7.75 11.444-9.511 7.972-2.336 12.714-1.925 24.121 2.09l10.317 3.63 50.323.292c54.799.317 57.053.147 70.454-5.306 5.037-2.05 7.148-2.389 12.493-2.01 7.508.534 14.41 3.516 16.925 7.314 1.407 2.124 1.938 6.257 2.822 21.98.92 16.359 1.402 19.966 3.104 23.238 1.987 3.818 6.372 8.473 10.686 11.342l2.207 1.468-2.402 1.574c-5.676 3.719-11.033 11.725-12.728 19.02-.433 1.863-.814 12.538-.846 23.721-.053 18.605-.225 20.62-2.021 23.722-2.46 4.244-7.584 6.817-14.898 7.48l-5.665.514-.16 10.042-.16 10.042h7.744c13.84 0 23.255-3.02 30.646-9.833 9.046-8.339 10.279-13.347 10.18-41.367-.068-19.068.142-22.335 1.623-25.257 1.96-3.867 6.201-6.632 10.97-7.15l3.317-.36.484-11.995.484-11.995-4.451-.141c-4.515-.143-9.786-2.234-11.221-4.451-.433-.67-1.017-11.674-1.298-24.455-.5-22.773-.56-23.335-3.071-28.14-1.409-2.697-4.319-6.49-6.466-8.43-8.239-7.443-14.247-8.968-38.848-9.857-33.556-1.213-55.779-8.37-70.79-22.801l-6.547-6.294-6.365 5.96c-10.854 10.16-28.937 18.067-48.31 21.122-4.876.769-17.378 1.819-27.781 2.333-20.763 1.026-25.73 2.195-32.664 7.687-2.04 1.615-4.993 5.257-6.564 8.092l-2.855 5.154-.484 23.41c-.452 21.845-.62 23.594-2.515 26.143-2.099 2.824-9.59 5.535-13.46 4.873-1.865-.32-1.926.123-1.64 11.834l.299 12.167 3.841.146c4.409.169 7.863 2.135 10.315 5.873 1.467 2.236 1.792 5.954 2.309 26.37.704 27.845 1.496 31.601 8.162 38.728 7.824 8.364 18.298 12.46 32.144 12.57l7.988.064zm-52.224-312.62.06-11.875 28.168-13.844c24.907-12.241 27.954-13.983 26.324-15.049-1.014-.663-13.934-7.045-28.712-14.182l-26.868-12.976v-10.946c0-6.02.39-10.945.865-10.945.747 0 51.938 23.89 79.498 37.1 9.674 4.637 12.587 7.58 12.587 12.719 0 6.849-.318 7.055-44.35 28.76-22.736 11.21-42.755 20.994-44.485 21.745l-3.147 1.366zm186.306-13.708c-3.935-1.715-8.847-7.48-10.188-11.957-.696-2.323-.977-9.859-.77-20.665.32-16.685.376-17.086 2.99-21.03 1.467-2.216 4.51-5.006 6.777-6.211 3.922-2.088 5.315-2.205 29.953-2.521 29.23-.376 34.868.295 39.951 4.758 5.196 4.562 6.07 7.601 6.693 23.254.896 22.556-1.31 29.74-10.404 33.869-3.612 1.64-6.708 1.808-33.032 1.793-21.85-.013-29.772-.332-31.97-1.29zm49.945-17.081c1.633-.874 1.873-2.09 1.873-9.489 0-5.31-.435-8.921-1.162-9.648-1.636-1.636-35.737-1.636-37.373 0-.724.723-1.162 4.303-1.162 9.488 0 5.186.438 8.766 1.162 9.49 1.488 1.487 33.916 1.628 36.662.159zm-296.049-8.438c-4.651-5.031-12.197-21.01-15.661-33.162-7.943-27.867-11.697-54.403-12.426-87.832-.573-26.29.35-38.46 3.753-49.477l1.908-6.177-6.236-6.46c-11.781-12.203-19.952-27.325-24.457-45.264-4.611-18.36-3.228-41.182 3.406-56.178 2.1-4.748 3.143-5.067 7.303-2.231 20.538 14.003 45.657 15.294 80.323 4.126 5.88-1.895 21.147-7.917 33.928-13.384 26.395-11.29 36.39-14.978 49.792-18.376 40.538-10.275 82.69-9.431 118.243 2.368 26.254 8.713 50.455 22.91 67.176 39.407 11.388 11.233 18.613 22.47 24.491 38.086 2.926 7.774 3.688 8.714 7.061 8.714 4.18 0 15.188 3.71 23.705 7.99 24.613 12.366 38.868 33.081 43.632 63.406 1.353 8.607 1.543 14.716 1.096 35.11-1.195 54.452-11.786 100.084-27.359 117.881-2.446 2.796-4.783 5.084-5.194 5.084-.41 0-1.008-10.348-1.328-22.996-1.003-39.638-5.794-69.522-15.704-97.96-10.604-30.427-27.368-50.23-50.204-59.307-7.3-2.902-8.72-3.133-19.492-3.173l-11.619-.044-7.746 5.452c-30.598 21.536-59.767 33.86-94.886 40.088-12.01 2.13-44.61 2.967-58.576 1.505-24.212-2.535-49.652-8.1-64.626-14.139-4.603-1.856-8.905-3.375-9.559-3.375-2.168 0-9.723 9.707-14.188 18.228-12.803 24.437-19.7 60.923-20.759 109.82-.34 15.705-.93 25.9-1.5 25.9-.517 0-2.45-1.633-4.297-3.63z" style="fill:#000;stroke:#fff;stroke-width:2.81646;stroke-dasharray:none;stroke-opacity:1"/></svg>