<?xml version="1.0" encoding="UTF-8" standalone="no"?>
<!-- Created with Inkscape (http://www.inkscape.org/) -->

<svg
   width="700"
   height="1400"
   viewBox="0 0 185.20832 370.41668"
   version="1.1"
   id="svg1"
   xml:space="preserve"
   sodipodi:docname="Terminal-tall.svg"
   inkscape:version="1.3.2 (091e20e, 2023-11-25, custom)"
   inkscape:export-filename="Terminal_Tall.png"
   inkscape:export-xdpi="131.65715"
   inkscape:export-ydpi="131.65715"
   xmlns:inkscape="http://www.inkscape.org/namespaces/inkscape"
   xmlns:sodipodi="http://sodipodi.sourceforge.net/DTD/sodipodi-0.dtd"
   xmlns="http://www.w3.org/2000/svg"
   xmlns:svg="http://www.w3.org/2000/svg"><sodipodi:namedview
     id="namedview1"
     pagecolor="#ffffff"
     bordercolor="#000000"
     borderopacity="0.25"
     inkscape:showpageshadow="2"
     inkscape:pageopacity="0.0"
     inkscape:pagecheckerboard="0"
     inkscape:deskcolor="#d1d1d1"
     inkscape:document-units="mm"
     showguides="false"
     inkscape:zoom="0.80625001"
     inkscape:cx="629.45736"
     inkscape:cy="599.68991"
     inkscape:window-width="2400"
     inkscape:window-height="1494"
     inkscape:window-x="-11"
     inkscape:window-y="-11"
     inkscape:window-maximized="1"
     inkscape:current-layer="layer1" /><defs
     id="defs1">&lt;!------- ①  DEFINITIONS  –––––––––––––––––––––––––––––––––––––––––––--&gt;
&lt;defs&gt;
  &lt;!-- Base-fill gradient --&gt;
  &lt;linearGradient id=&quot;baseFillGrad&quot; x1=&quot;0%&quot; y1=&quot;0%&quot; x2=&quot;0%&quot; y2=&quot;100%&quot;&gt;
    &lt;stop offset=&quot;0%&quot;  stop-color=&quot;#b40000&quot;/&gt;
    &lt;stop offset=&quot;100%&quot; stop-color=&quot;#600000&quot;/&gt;
  &lt;/linearGradient&gt;

  &lt;!-- Stroke gradient --&gt;
  &lt;linearGradient id=&quot;strokeGrad&quot; x1=&quot;0%&quot; y1=&quot;0%&quot; x2=&quot;100%&quot; y2=&quot;0%&quot;&gt;
    &lt;stop offset=&quot;0%&quot;   stop-color=&quot;#ff3a3a&quot;/&gt;
    &lt;stop offset=&quot;100%&quot; stop-color=&quot;#800000&quot;/&gt;
  &lt;/linearGradient&gt;

  &lt;!-- Soft-red neon glow --&gt;
  &lt;filter id=&quot;redGlow&quot; x=&quot;-20%&quot; y=&quot;-20%&quot; width=&quot;140%&quot; height=&quot;140%&quot;&gt;
    &lt;feGaussianBlur in=&quot;SourceGraphic&quot; stdDeviation=&quot;6&quot; result=&quot;blur&quot;/&gt;
    &lt;feMerge&gt;
      &lt;feMergeNode in=&quot;blur&quot;/&gt;
      &lt;feMergeNode in=&quot;SourceGraphic&quot;/&gt;
    &lt;/feMerge&gt;
  &lt;/filter&gt;

  &lt;!-- Metal (turbulence → diffuse → specular → overlay) --&gt;
  &lt;filter id=&quot;metalFX&quot; x=&quot;-20%&quot; y=&quot;-20%&quot; width=&quot;140%&quot; height=&quot;140%&quot;&gt;
    &lt;feTurbulence type=&quot;fractalNoise&quot;
                  baseFrequency=&quot;0.08 0.08&quot;
                  numOctaves=&quot;4&quot;
                  seed=&quot;2&quot;
                  result=&quot;turb&quot;/&gt;
    &lt;!-- diffuse red undercoat --&gt;
    &lt;feDiffuseLighting in=&quot;turb&quot; lighting-color=&quot;#ff4c4c&quot;
                       surfaceScale=&quot;2&quot; result=&quot;diffuse&quot;&gt;
      &lt;feDistantLight azimuth=&quot;225&quot; elevation=&quot;45&quot;/&gt;
    &lt;/feDiffuseLighting&gt;
    &lt;!-- warm tinted specular highlights --&gt;
    &lt;feSpecularLighting in=&quot;turb&quot; lighting-color=&quot;#ffbbbb&quot;
                        specularConstant=&quot;1.5&quot; specularExponent=&quot;25&quot;
                        surfaceScale=&quot;4&quot; result=&quot;spec&quot;&gt;
       &lt;feDistantLight azimuth=&quot;225&quot; elevation=&quot;60&quot;/&gt;
    &lt;/feSpecularLighting&gt;

    &lt;!-- overlay specular on the original --&gt;
    &lt;feBlend in=&quot;spec&quot; in2=&quot;SourceGraphic&quot; mode=&quot;overlay&quot; result=&quot;blendSpec&quot;/&gt;

    &lt;!-- merge for final output --&gt;
    &lt;feMerge&gt;
      &lt;feMergeNode in=&quot;diffuse&quot;/&gt;
      &lt;feMergeNode in=&quot;blendSpec&quot;/&gt;
    &lt;/feMerge&gt;
  &lt;/filter&gt;
&lt;/defs&gt;
<filter
   inkscape:label="Glowing Metal"
   inkscape:menu="Bevels"
   inkscape:menu-tooltip="Glowing metal texture"
   style="color-interpolation-filters:sRGB"
   id="filter67"
   x="-0.29200438"
   y="-0.14968626"
   width="1.5840088"
   height="1.2993725"><feGaussianBlur
     stdDeviation="6"
     in="SourceGraphic"
     result="result0"
     id="feGaussianBlur65" /><feDiffuseLighting
     lighting-color="#ffffff"
     diffuseConstant="1"
     surfaceScale="4"
     result="result5"
     id="feDiffuseLighting65"><feDistantLight
       elevation="118"
       azimuth="235"
       id="feDistantLight65" /></feDiffuseLighting><feComposite
     k1="1.4"
     in2="SourceGraphic"
     in="result5"
     result="fbSourceGraphic"
     operator="arithmetic"
     id="feComposite65"
     k2="0"
     k3="0"
     k4="0" /><feGaussianBlur
     result="result0"
     in="fbSourceGraphic"
     stdDeviation="6"
     id="feGaussianBlur66" /><feSpecularLighting
     specularExponent="25"
     specularConstant="1"
     surfaceScale="4"
     lighting-color="#ffffff"
     result="result1"
     in="result0"
     id="feSpecularLighting66"><feDistantLight
       azimuth="238"
       elevation="247"
       id="feDistantLight66" /></feSpecularLighting><feComposite
     k3="1"
     k2="1"
     operator="arithmetic"
     in="fbSourceGraphic"
     in2="result1"
     result="result4"
     id="feComposite66"
     k1="0"
     k4="0" /><feComposite
     operator="in"
     result="fbSourceGraphic"
     in2="SourceGraphic"
     in="result4"
     id="feComposite67" /><feColorMatrix
     result="fbSourceGraphicAlpha"
     in="fbSourceGraphic"
     values="0 0 0 -1 0 0 0 0 -1 0 0 0 0 -1 0 0 0 0 1 0"
     id="feColorMatrix71" /><feGaussianBlur
     id="feGaussianBlur71"
     stdDeviation="3"
     result="result10"
     in="fbSourceGraphic" /><feBlend
     id="feBlend71"
     in2="fbSourceGraphic"
     result="result5"
     mode="multiply"
     in="result10" /><feComposite
     id="feComposite71"
     in2="fbSourceGraphic"
     in="result5"
     result="fbSourceGraphic"
     operator="over" /><feGaussianBlur
     id="feGaussianBlur72"
     result="result9"
     stdDeviation="5" /><feSpecularLighting
     id="feSpecularLighting72"
     in="result9"
     result="result1"
     lighting-color="#ffb1b1"
     surfaceScale="1"
     specularConstant="2.20000005"
     specularExponent="45"><fePointLight
       id="fePointLight72"
       x="-5000"
       y="-10000"
       z="20000" /></feSpecularLighting><feComposite
     id="feComposite72"
     in2="fbSourceGraphic"
     in="result1"
     result="result2"
     operator="in" /><feComposite
     id="feComposite73"
     in="result2"
     result="result4"
     operator="arithmetic"
     k2="2"
     k3="0.8"
     in2="fbSourceGraphic"
     k1="0"
     k4="0" /><feBlend
     id="feBlend73"
     in="result4"
     in2="result4"
     mode="multiply" /></filter></defs><g
     inkscape:label="Layer 1"
     inkscape:groupmode="layer"
     id="layer1"><path
       style="display:inline;fill:#d15942;fill-opacity:0.988235;stroke:none;stroke-width:1.34408;stroke-dasharray:none;stroke-opacity:0.988235;filter:url(#filter67)"
       d="m 126.1356,339.22234 v -1.07269 h 9.52013 9.52012 v 1.07269 1.07269 h -9.52012 -9.52013 z m -105.183674,-7.17526 -7.976459,-7.97979 v -6.9624 -6.96241 l 1.344393,-1.3613 1.344393,-1.36131 0.0089,-40.73178 0.0089,-204.789695 -2.023734,-2.035673 -2.023733,-2.035673 v -11.14903 -11.14903 l 8.152691,-7.952336 8.152692,-7.952337 1.95915,0 h 82.687821 l 4.36365,4.357805 4.36366,4.357805 17.09311,0.07354 17.09312,0.07354 6.10093,6.092245 6.10092,6.092245 v 16.025501 16.025496 h -0.9386 -0.9386 V 57.383868 42.045241 l -5.69043,-5.712923 -5.69043,-5.712924 -17.0372,-0.0042 -17.0372,-0.0042 -4.29077,-4.285122 -4.29076,-4.285121 -81.926731,0.0014 -1.198062,0.0014 -7.44179,7.260629 -7.44179,7.260628 v 10.09484 10.09484 l 2.078338,2.090554 2.078337,2.090554 0.07258,205.555024 0.07258,41.49712 -1.48049,1.4621 -1.48049,1.4621 v 6.06845 6.06845 l 7.495638,7.41639 7.495638,7.41638 14.56156,-0.007 14.56156,-0.007 2.949899,-2.8027 2.949899,-2.80269 1.049723,0.004 81.778411,0.004 2.96414,-2.89129 c 1.63028,-1.59022 6.19227,-6.08905 10.13776,-9.9974 l 7.17362,-7.10611 v -8.99044 -8.99043 l 2.81581,-2.80623 2.81581,-2.80623 V 245.23124 37.722478 l -6.3691,-6.303182 c -3.503,-3.466748 -7.10154,-7.000456 -7.99675,-7.852681 l -1.62765,-1.549499 h -9.43447 -9.43447 v -1.19605 -1.19605 h 9.80965 9.80964 l 3.9342,3.815139 c 2.16381,2.098331 6.07623,5.904489 8.69427,8.458131 l 4.76007,4.642992 v 208.635702 44.5778 l -2.81582,2.80623 -2.81581,2.80623 v 8.99771 8.99772 l -4.89415,4.81075 c -2.69178,2.64591 -7.49163,7.38031 -10.66634,10.52088 l -5.7722,5.71012 -81.786171,0.005 -1.057483,0.005 -2.949898,2.79886 -2.949899,2.79886 -15.689775,0.008 -15.689774,0.008 z M 20.761976,49.324434 c 0.007,-6.555742 0.09656,-9.058755 0.338302,-9.453085 0.18084,-0.29499 2.4968,-2.648205 5.146577,-5.229366 2.649778,-2.581161 4.917092,-4.843868 5.038476,-5.028237 0.170672,-0.259231 2.740353,-0.335215 11.336536,-0.335215 h 11.115838 v 1.07269 1.072691 l -10.525775,0.01162 -10.525775,0.01162 -4.894151,4.795636 -4.89415,4.795636 v 8.601377 8.601376 h -1.07269 -1.072691 z M 125.33108,23.378733 c -1.15274,-1.152743 -0.30468,-3.218072 1.3214,-3.218072 0.91591,0 1.89667,1.058734 1.89667,2.047461 0,0.877899 -0.91175,1.706956 -1.87721,1.706956 -0.44695,0 -1.04289,-0.238376 -1.34086,-0.536345 z m 8.13131,0.217559 c -0.85448,-0.413105 -1.2902,-1.613847 -0.87296,-2.405653 0.44115,-0.837176 0.7596,-1.020991 1.77727,-1.025871 1.6456,-0.0079 2.31111,2.15114 0.98469,3.194501 -0.78469,0.617233 -1.03706,0.6489 -1.889,0.237023 z"
       id="path1"
       sodipodi:nodetypes="cccccccccccccccccccccccccccccccccccccccccccccccccccccccccccccccccsscccccccsscccccccsscccccccsscccccccccssssccccccccccccssssssssss"
       inkscape:export-filename="Terminal_tall.png"
       inkscape:export-xdpi="117.04206"
       inkscape:export-ydpi="117.04206" /></g></svg>
